ffmpeg version 3.4.11-0ubuntu0.1 Copyright (c) 2000-2022 the FFmpeg developers
  built with gcc 7 (Ubuntu 7.5.0-3ubuntu1~18.04)
  configuration: --prefix=/usr --extra-version=0ubuntu0.1 --toolchain=hardened --libdir=/usr/lib/x86_64-linux-gnu --incdir=/usr/include/x86_64-linux-gnu --enable-gpl --disable-stripping --enable-avresample --enable-avisynth --enable-gnutls --enable-ladspa --enable-libass --enable-libbluray --enable-libbs2b --enable-libcaca --enable-libcdio --enable-libflite --enable-libfontconfig --enable-libfreetype --enable-libfribidi --enable-libgme --enable-libgsm --enable-libmp3lame --enable-libmysofa --enable-libopenjpeg --enable-libopenmpt --enable-libopus --enable-libpulse --enable-librubberband --enable-librsvg --enable-libshine --enable-libsnappy --enable-libsoxr --enable-libspeex --enable-libssh --enable-libtheora --enable-libtwolame --enable-libvorbis --enable-libvpx --enable-libwavpack --enable-libwebp --enable-libx265 --enable-libxml2 --enable-libxvid --enable-libzmq --enable-libzvbi --enable-omx --enable-openal --enable-opengl --enable-sdl2 --enable-libdc1394 --enable-libdrm --enable-libiec61883 --enable-chromaprint --enable-frei0r --enable-libopencv --enable-libx264 --enable-shared
  libavutil      55. 78.100 / 55. 78.100
  libavcodec     57.107.100 / 57.107.100
  libavformat    57. 83.100 / 57. 83.100
  libavdevice    57. 10.100 / 57. 10.100
  libavfilter     6.107.100 /  6.107.100
  libavresample   3.  7.  0 /  3.  7.  0
  libswscale      4.  8.100 /  4.  8.100
  libswresample   2.  9.100 /  2.  9.100
  libpostproc    54.  7.100 / 54.  7.100
Input #0, image2pipe, from 'pipe:':
  Duration: N/A, bitrate: N/A
    Stream #0:0: Video: mjpeg, yuvj420p(pc, bt470bg/unknown/unknown), 800x600, 20 fps, 20 tbr, 20 tbn, 20 tbc
Stream mapping:
  Stream #0:0 -> #0:0 (mjpeg (native) -> h264 (libx264))
[libx264 @ 0x5569ae512660] using cpu capabilities: MMX2 SSE2Fast SSSE3 SSE4.2 AVX FMA3 BMI2 AVX2 AVX512
[libx264 @ 0x5569ae512660] profile High, level 3.1
[libx264 @ 0x5569ae512660] 264 - core 152 r2854 e9a5903 - H.264/MPEG-4 AVC codec - Copyleft 2003-2017 - http://www.videolan.org/x264.html - options: cabac=1 ref=3 deblock=1:0:0 analyse=0x3:0x113 me=hex subme=7 psy=1 psy_rd=1.00:0.00 mixed_ref=1 me_range=16 chroma_me=1 trellis=1 8x8dct=1 cqm=0 deadzone=21,11 fast_pskip=1 chroma_qp_offset=-2 threads=19 lookahead_threads=3 sliced_threads=0 nr=0 decimate=1 interlaced=0 bluray_compat=0 constrained_intra=0 bframes=3 b_pyramid=2 b_adapt=1 b_bias=0 direct=1 weightb=1 open_gop=0 weightp=2 keyint=250 keyint_min=20 scenecut=40 intra_refresh=0 rc_lookahead=40 rc=crf mbtree=1 crf=23.0 qcomp=0.60 qpmin=0 qpmax=69 qpstep=4 ip_ratio=1.40 aq=1:1.00
Output #0, mp4, to '/tmp/fuzzerdata/front.mp4':
  Metadata:
    encoder         : Lavf57.83.100
    Stream #0:0: Video: h264 (libx264) (avc1 / 0x31637661), yuvj420p(pc), 800x600, q=-1--1, 20 fps, 10240 tbn, 20 tbc
    Metadata:
      encoder         : Lavc57.107.100 libx264
    Side data:
      cpb: bitrate max/min/avg: 0/0/0 buffer size: 0 vbv_delay: -1
frame=   50 fps=0.0 q=0.0 size=       0kB time=00:00:00.00 bitrate=N/A speed=   0x    frame=  112 fps=111 q=28.0 size=     256kB time=00:00:02.30 bitrate= 911.9kbits/s speed=2.28x    frame=  174 fps=115 q=28.0 size=     768kB time=00:00:05.40 bitrate=1165.1kbits/s speed=3.58x    frame=  196 fps= 94 q=-1.0 Lsize=    1871kB time=00:00:09.65 bitrate=1587.9kbits/s speed=4.63x    
video:1867kB audio:0kB subtitle:0kB other streams:0kB global headers:0kB muxing overhead: 0.162580%
[libx264 @ 0x5569ae512660] frame I:2     Avg QP:20.86  size: 34484
[libx264 @ 0x5569ae512660] frame P:60    Avg QP:22.33  size: 16112
[libx264 @ 0x5569ae512660] frame B:134   Avg QP:24.15  size:  6536
[libx264 @ 0x5569ae512660] consecutive B-frames:  5.1%  8.2%  9.2% 77.6%
[libx264 @ 0x5569ae512660] mb I  I16..4: 30.3% 45.6% 24.1%
[libx264 @ 0x5569ae512660] mb P  I16..4:  1.2% 11.7%  3.3%  P16..4: 19.4% 15.4%  8.6%  0.0%  0.0%    skip:40.3%
[libx264 @ 0x5569ae512660] mb B  I16..4:  0.3%  4.1%  0.8%  B16..8: 26.1%  8.7%  2.1%  direct: 2.7%  skip:55.3%  L0:38.0% L1:43.8% BI:18.3%
[libx264 @ 0x5569ae512660] 8x8 transform intra:71.9% inter:61.1%
[libx264 @ 0x5569ae512660] coded y,uvDC,uvAC intra: 79.9% 22.8% 8.0% inter: 18.5% 6.1% 1.3%
[libx264 @ 0x5569ae512660] i16 v,h,dc,p: 60% 15% 10% 15%
[libx264 @ 0x5569ae512660] i8 v,h,dc,ddl,ddr,vr,hd,vl,hu: 10% 16% 27%  6%  8%  4% 14%  4% 11%
[libx264 @ 0x5569ae512660] i4 v,h,dc,ddl,ddr,vr,hd,vl,hu: 14% 23% 15%  5% 13%  5% 14%  3%  8%
[libx264 @ 0x5569ae512660] i8c dc,h,v,p: 73% 18%  8%  2%
[libx264 @ 0x5569ae512660] Weighted P-Frames: Y:6.7% UV:5.0%
[libx264 @ 0x5569ae512660] ref P L0: 50.3% 31.3% 11.5%  6.3%  0.6%
[libx264 @ 0x5569ae512660] ref B L0: 92.3%  6.0%  1.7%
[libx264 @ 0x5569ae512660] ref B L1: 96.8%  3.2%
[libx264 @ 0x5569ae512660] kb/s:1560.49
